<svg width="72" height="24" viewBox="0 0 72 24" preserveAspectRatio="none" xmlns="http://www.w3.org/2000/svg">
  <!-- Sunny Icon (ViewBox: 0 0 24 24) -->
  <g transform="translate(0, 0)">
    <circle cx="12" cy="6" r="4" stroke="currentColor" stroke-width="1.5" fill="none" />
    <circle cx="20" cy="12" r="3" stroke="currentColor" stroke-width="1.5" fill="none" />
    <circle cx="4" cy="12" r="3" stroke="currentColor" stroke-width="1.5" fill="none" />
  </g>

  <!-- Cloudy Icon (ViewBox: 24 0 24 24) -->
  <g transform="translate(24, 0)">
    <path d="M2 6c0-2.21-1.89-4-4 4s-4 2-4 4v3c0 2.21 1.89 4 4 4h16c2.21 0 4-1.89 4-4V6z" stroke="currentColor" stroke-width="1.5" fill="none" />
  </g>

  <!-- Rainy Icon (ViewBox: 48 0 24 24) -->
  <g transform="translate(48, 0)">
    <!-- Cloud base -->
    <path d="M3 6c0-2.21 1.89-4 4-4h14c2.21 0 4 1.89 4 4v3c0 2.21-1.89 4-4 4H7C5.89 18 4 16.11 4 14V6z" stroke="currentColor" stroke-width="1.5" fill="none" />
    <!-- Rain drops -->
    <line x1="8" y1="8" x2="8" y2="13" stroke="currentColor" stroke-width="1.5" fill="none" />
    <line x1="10" y1="9" x2="10" y2="14" stroke="currentColor" stroke-width="1.5" fill="none" />
    <line x1="13" y1="8" x2="13" y2="13" stroke="currentColor" stroke-width="1.5" fill="none" />
  </g>
</svg>