<svg width="72" height="24" viewBox="0 0 72 24" xmlns="http://www.w3.org/2000/svg">
  <!-- Sunny Icon (x=0 to x=24) -->
  <g transform="translate(0, 0)">
    <circle cx="16" cy="12" r="8" stroke="currentColor" stroke-width="1.5" fill="none" />
    <rect x="12" y="7" width="4" height="10" rx="2" stroke="currentColor" stroke-width="1.5" fill="none" />
    <rect x="20" y="7" width="4" height="10" rx="2" stroke="currentColor" stroke-width="1.5" fill="none" />
  </g>

  <!-- Cloudy Icon (x=24 to x=48) -->
  <g transform="translate(24, 0)">
    <path d="M4 8c0-1.1 0-2 .6-3.5l3-2 c.3-.3.7-.5 1-1h14c.3 0 .7.2 1 1l3 2 c.3.3.3.7 0 1.1L18 16H20V8H4z" stroke="currentColor" stroke-width="1.5" fill="none" />
    <path d="M10 12c0-.9 1.2-1.4 1.8-1.4h6c.6 0 1 .3 1.6 1H10z" stroke="currentColor" stroke-width="1.5" fill="none" />
  </g>

  <!-- Rainy Icon (x=48 to x=72) -->
  <g transform="translate(48, 0)">
    <!-- Cloud base -->
    <path d="M3 10c0-1.1 0-2 .6-3.5l3-2 c.3-.3.7-.5 1-1h14c.3 0 .7.2 1 1l3 2 c.3.3.3.7 0 1.1L18 16H20V8H3z" stroke="currentColor" stroke-width="1.5" fill="none" />
    <!-- Raindrops -->
    <line x1="6" y1="14" x2="6" y2="20" stroke="currentColor" stroke-width="1.5" opacity=".7" />
    <line x1="10" y1="13" x2="10" y2="19" stroke="currentColor" stroke-width="1.5" opacity=".7" transform="translate(0, -1)" />
    <line x1="14" y1="14.5" x2="14" y2="21" stroke="currentColor" stroke-width="1.5" opacity=".7" transform="translate(0, 0.5)" />
  </g>
</svg>