<svg xmlns="http://www.w3.org/2000/svg" viewBox="0 0 72 24" fill="none" stroke="currentColor" stroke-width="1.5" stroke-linecap="round" stroke-linejoin="round">
  <g>
    <circle cx="12" cy="12" r="4.5"/>
    <line x1="12" y1="6.5" x2="12" y2="2.5"/>
    <line x1="12" y1="17.5" x2="12" y2="21.5"/>
    <line x1="6.5" y1="12" x2="2.5" y2="12"/>
    <line x1="17.5" y1="12" x2="21.5" y2="12"/>
    <line x1="7.4" y1="7.4" x2="5.3" y2="5.3"/>
    <line x1="16.6" y1="7.4" x2="18.7" y2="5.3"/>
    <line x1="7.4" y1="16.6" x2="5.3" y2="18.7"/>
    <line x1="16.6" y1="16.6" x2="18.7" y2="18.7"/>
  </g>
  <g transform="translate(24,0)">
    <path d="M5,18 a3,3 0 0 1 0,-6 a7,7 0 0 1 14,0 a3,3 0 0 1 0,6 h-14 z"/>
  </g>
  <g transform="translate(48,0)">
    <path d="M5,18 a3,3 0 0 1 0,-6 a7,7 0 0 1 14,0 a3,3 0 0 1 0,6 h-14 z"/>
    <line x1="9" y1="20" x2="9" y2="22.5"/>
    <line x1="12" y1="20.5" x2="12" y2="23"/>
    <line x1="15" y1="20" x2="15" y2="22.5"/>
  </g>
</svg>